<svg xmlns="http://www.w3.org/2000/svg" width="120" height="120" viewBox="0 0 120 120">
  <g id="Upload-Logo" transform="translate(0.424 0.424)">
    <rect id="Rectangle_4189" data-name="Rectangle 4189" width="120" height="120" transform="translate(-0.424 -0.424)" fill="none"/>
    <g id="Group_10199" data-name="Group 10199" transform="translate(14.108 23.363)">
      <path id="Path_2086" data-name="Path 2086" d="M94.514,8.633V73.389a4.37,4.37,0,0,1-4.619,4.619H82.949L47.8,42.866a4.472,4.472,0,0,0-6.476,0L6.629,78.015A4.973,4.973,0,0,1,2.01,73.4V8.633A4.37,4.37,0,0,1,6.629,4H89.887a4.371,4.371,0,0,1,4.619,4.619ZM27.445,17.884a6.938,6.938,0,1,0,6.938,6.938,7.113,7.113,0,0,0-6.938-6.938Z" transform="translate(-1.991 -3.995)" fill="#1c1a51" opacity="0.4"/>
      <path id="Path_2087" data-name="Path 2087" d="M81.1,11.087a4.472,4.472,0,0,0-6.476,0L42.25,43.466H2v9.251a4.371,4.371,0,0,0,4.619,4.619H89.891a4.371,4.371,0,0,0,4.619-4.619V24.5Z" transform="translate(-1.995 16.677)" fill="#1c1a51"/>
    </g>
  </g>
</svg>
